<?xml version="1.0" encoding="UTF-8"?>
<svg width="1000px" height="1000px" viewBox="0 0 1000 1000" version="1.1" xmlns="http://www.w3.org/2000/svg" xmlns:xlink="http://www.w3.org/1999/xlink">
    <!-- Generator: Sketch 43.2 (39069) - http://www.bohemiancoding.com/sketch -->
    <title>Lockup</title>
    <desc>Created with Sketch.</desc>
    <defs>
        <linearGradient x1="50.0059289%" y1="99.9969901%" x2="50.0059289%" y2="-0.000713544369%" id="linearGradient-1">
            <stop stop-color="#010043" offset="0%"></stop>
            <stop stop-color="#01006F" offset="55.38%"></stop>
            <stop stop-color="#010043" offset="100%"></stop>
        </linearGradient>
    </defs>
    <g id="Assets" stroke="none" stroke-width="1" fill="none" fill-rule="evenodd">
        <g id="Lockup">
            <g id="Group" transform="translate(106.000000, 278.000000)">
                <path d="M395,153.350456 C431.998297,153.350456 461.991343,123.376634 461.991343,86.4020496 C461.991343,49.4274656 431.998297,19.453643 395,19.453643 C358.001703,19.453643 328.008657,49.4274656 328.008657,86.4020496 C328.008657,123.376634 358.001703,153.350456 395,153.350456 Z M389.265855,0.111483179 C369.73865,1.04040945 351.358257,5.57043302 338.628634,20.3536311 C322.434428,39.1613721 306.905375,57.2983559 308.701646,85.8139796 C311.688188,133.227824 343.703582,164.215357 394.775386,171.833759 C441.793507,178.847755 473.662834,135.059136 480.850333,85.8139796 C484.771226,58.9571528 468.721881,30.6876343 445.529703,15.8549739 C428.532729,4.98412371 410.458958,-0.897065344 389.265855,0.111483179 Z" id="Fill-20" fill="url(#linearGradient-1)"></path>
                <path d="M466.55737,295.391462 L499.395985,295.391462 C503.934678,295.391462 508.317566,295.76321 512.54478,296.506716 C516.771995,297.250222 520.531934,298.52199 523.824711,300.322057 C527.117488,302.122124 529.742772,304.548265 531.700639,307.600553 C533.658507,310.652841 534.637426,314.526841 534.637426,319.222669 C534.637426,325.248981 532.746332,330.29692 528.964088,334.366637 C525.181844,338.436354 519.77554,340.901627 512.745016,341.762529 L537.841193,378.507196 L517.550667,378.507196 L495.658257,343.288665 L483.377149,343.288665 L483.377149,378.507196 L466.55737,378.507196 L466.55737,295.391462 Z M496.459199,330.609994 L483.377149,330.609994 L483.377149,308.070134 L497.927592,308.070134 C500.063448,308.070134 502.266016,308.187528 504.535362,308.422319 C506.804709,308.65711 508.873788,309.146252 510.742661,309.889758 C512.611535,310.633264 514.12441,311.748506 515.281332,313.235518 C516.438253,314.72253 517.016706,316.679096 517.016706,319.105273 C517.016706,321.844506 516.393757,323.977163 515.147841,325.503307 C513.901926,327.029451 512.27781,328.164259 510.275445,328.907765 C508.273081,329.651271 506.070513,330.120846 503.667675,330.316506 C501.264838,330.512165 498.862036,330.609994 496.459199,330.609994 Z M69.9489197,314.87905 C66.4781544,311.59197 63.118682,309.400617 59.8704017,308.304924 C56.6221213,307.209231 53.3516416,306.661392 50.0588643,306.661392 C45.1641953,306.661392 40.7368111,307.424453 36.7765789,308.950597 C32.8163468,310.476741 29.412378,312.589832 26.5645706,315.289933 C23.7167632,317.990033 21.5141952,321.140104 19.9568006,324.740238 C18.3994059,328.340373 17.6207202,332.214373 17.6207202,336.362354 C17.6207202,340.82339 18.3994059,344.932178 19.9568006,348.68884 C21.5141952,352.445502 23.7167632,355.693401 26.5645706,358.432633 C29.412378,361.171866 32.8163468,363.324088 36.7765789,364.889364 C40.7368111,366.45464 45.1641953,367.237266 50.0588643,367.237266 C53.8856055,367.237266 57.6010485,366.435074 61.2053047,364.830667 C64.809561,363.226259 68.1690334,360.663158 71.2838227,357.141287 L85.1668144,365.828525 C80.8951033,370.993935 75.6890335,374.750541 69.5484488,377.098455 C63.407864,379.446369 56.8669045,380.620308 49.925374,380.620308 C42.6278675,380.620308 35.9311708,379.583328 29.8350831,377.509338 C23.7389954,375.435347 18.4884292,372.500499 14.0832271,368.704705 C9.67802507,364.908911 6.22956001,360.350113 3.73772853,355.028175 C1.24589705,349.706237 0,343.79741 0,337.301515 C0,330.649092 1.24589705,324.603305 3.73772853,319.163971 C6.22956001,313.724637 9.67802507,309.087577 14.0832271,305.252651 C18.4884292,301.417725 23.7389954,298.463311 29.8350831,296.389321 C35.9311708,294.31533 42.6278675,293.278351 49.925374,293.278351 C56.3329406,293.278351 62.2731998,294.276199 67.7463296,296.271926 C73.2194595,298.267652 78.3142885,301.652511 83.0309695,306.426602 L69.9489197,314.87905 Z M364.168118,295.391462 L401.011442,295.391462 C404.571201,295.391462 408.086411,295.76321 411.557176,296.506716 C415.027941,297.250222 418.120436,298.463293 420.834752,300.145964 C423.549069,301.828636 425.751637,304.000423 427.442522,306.661392 C429.133408,309.322361 429.978838,312.531129 429.978838,316.287791 C429.978838,320.983619 428.465963,324.857618 425.440168,327.909906 C422.414372,330.962194 418.4542,333.153548 413.559531,334.484032 L413.559531,334.718822 C416.496332,335.031877 419.232856,335.755807 421.769184,336.890632 C424.305513,338.025457 426.463584,339.473315 428.243464,341.234251 C430.023344,342.995186 431.424978,345.030014 432.448409,347.338796 C433.471839,349.647578 433.983547,352.132416 433.983547,354.793385 C433.983547,359.332685 432.960132,363.108857 430.91327,366.122013 C428.866409,369.135169 426.174381,371.56131 422.837107,373.400509 C419.499832,375.239708 415.673149,376.550607 411.356941,377.333245 C407.040732,378.115883 402.657845,378.507196 398.208146,378.507196 L364.168118,378.507196 L364.168118,295.391462 Z M380.987896,365.828525 L380.987896,341.879924 L397.140223,341.879924 C403.99276,341.879924 409.043092,342.740812 412.291373,344.462616 C415.539653,346.184419 417.163769,349.236662 417.163769,353.619434 C417.163769,356.358667 416.496324,358.530455 415.161414,360.134862 C413.826505,361.73927 412.135644,362.971906 410.088783,363.832808 C408.041921,364.69371 405.794857,365.241548 403.347522,365.47634 C400.900188,365.711131 398.608627,365.828525 396.472772,365.828525 L380.987896,365.828525 Z M380.987896,329.201252 L380.987896,308.070134 L394.870888,308.070134 C401.278455,308.070134 405.92832,308.950588 408.820625,310.711523 C411.712929,312.472459 413.15906,315.152954 413.15906,318.753088 C413.15906,321.88364 411.757425,324.407609 408.954115,326.325072 C406.150805,328.242535 401.945902,329.201252 396.339281,329.201252 L380.987896,329.201252 Z M225.069031,295.391462 L250.69917,295.391462 L275.928838,353.619434 L301.425486,295.391462 L326.788644,295.391462 L326.788644,378.507196 L310.769807,378.507196 L310.769807,309.478875 L310.502826,309.478875 L281.802411,378.507196 L270.055264,378.507196 L241.354849,309.478875 L241.087868,309.478875 L241.087868,378.507196 L225.069031,378.507196 L225.069031,295.391462 Z M566.143327,295.391462 L582.963105,295.391462 L582.963105,378.507196 L566.143327,378.507196 L566.143327,295.391462 Z M731.809172,295.391462 L748.628951,295.391462 L748.628951,365.124154 L788.809533,365.124154 L788.809533,378.507196 L731.809172,378.507196 L731.809172,295.391462 Z M104.328119,378.699622 L141.23606,295.368345 L156.565188,295.368345 L194.598202,378.699622 L175.471951,378.699622 L149.674112,315.730366 L124.720078,378.699622 L104.328119,378.699622 Z M612.02895,378.699622 L648.936891,295.368345 L664.266019,295.368345 L702.299033,378.699622 L683.172782,378.699622 L657.374943,315.730366 L632.420909,378.699622 L612.02895,378.699622 Z" id="Combined-Shape" fill="#00006C"></path>
            </g>
        </g>
    </g>
</svg>