<?xml version="1.0" encoding="UTF-8"?>
<svg width="1000px" height="482px" viewBox="0 0 1000 482" version="1.1" xmlns="http://www.w3.org/2000/svg" xmlns:xlink="http://www.w3.org/1999/xlink">
    <!-- Generator: Sketch 43.2 (39069) - http://www.bohemiancoding.com/sketch -->
    <title>lockup-tight-vector</title>
    <desc>Created with Sketch.</desc>
    <defs>
        <linearGradient x1="50.0059289%" y1="99.9969901%" x2="50.0059289%" y2="-0.000713544369%" id="linearGradient-1">
            <stop stop-color="#010043" offset="0%"></stop>
            <stop stop-color="#01006F" offset="55.38%"></stop>
            <stop stop-color="#010043" offset="100%"></stop>
        </linearGradient>
    </defs>
    <g id="Logomark" stroke="none" stroke-width="1" fill="none" fill-rule="evenodd">
        <g id="lockup-tight">
            <g id="Group">
                <path d="M500.634005,194.36064 C547.526678,194.36064 585.5407,156.370983 585.5407,109.508365 C585.5407,62.6457469 547.526678,24.6560891 500.634005,24.6560891 C453.741332,24.6560891 415.72731,62.6457469 415.72731,109.508365 C415.72731,156.370983 453.741332,194.36064 500.634005,194.36064 Z M493.36639,0.141296886 C468.617065,1.31864392 445.321243,7.060122 429.187364,25.7967591 C408.662377,49.634214 388.980422,72.6215326 391.257066,108.763029 C395.042293,168.856656 435.619496,208.131118 500.349322,217.786893 C559.9414,226.676628 600.333472,171.177712 609.443109,108.763029 C614.412558,74.723938 594.071171,38.8943626 564.676758,20.0950356 C543.134319,6.31701724 520.227118,-1.13696561 493.36639,0.141296886 Z" id="Fill-20" fill="url(#linearGradient-1)"></path>
                <path d="M591.32781,374.387369 L632.948385,374.387369 C638.700851,374.387369 644.255845,374.858532 649.613534,375.800872 C654.971223,376.743213 659.736675,378.355086 663.910033,380.636542 C668.08339,382.917997 671.410747,385.992956 673.892203,389.861511 C676.373659,393.730066 677.614368,398.640081 677.614368,404.591704 C677.614368,412.22962 675.217544,418.627518 670.423822,423.785591 C665.6301,428.943664 658.778001,432.068219 649.867318,433.15935 L681.674912,479.730566 L655.958134,479.730566 L628.211084,435.093618 L612.645665,435.093618 L612.645665,479.730566 L591.32781,479.730566 L591.32781,374.387369 Z M629.22622,419.024317 L612.645665,419.024317 L612.645665,390.45667 L631.087302,390.45667 C633.794345,390.45667 636.585941,390.605459 639.462174,390.90304 C642.338407,391.200621 644.960816,391.820572 647.329478,392.762913 C649.698141,393.705253 651.615601,395.118742 653.081915,397.003423 C654.54823,398.888103 655.281377,401.367909 655.281377,404.442914 C655.281377,407.914694 654.491834,410.617682 652.912726,412.551959 C651.333618,414.486237 649.275168,415.924524 646.737316,416.866864 C644.199463,417.809205 641.407867,418.404358 638.362444,418.652342 C635.31702,418.900326 632.271643,419.024317 629.22622,419.024317 Z M88.6552096,399.08648 C84.256265,394.920344 79.998376,392.142962 75.8814151,390.75425 C71.7644541,389.365538 67.6193569,388.671192 63.4459992,388.671192 C57.2423594,388.671192 51.6309693,389.638317 46.6116608,391.572594 C41.5923522,393.506871 37.2780674,396.185061 33.6686769,399.607244 C30.0592865,403.029428 27.2676904,407.021915 25.293805,411.584825 C23.3199196,416.147736 22.3329917,421.057751 22.3329917,426.315018 C22.3329917,431.96906 23.3199196,437.176652 25.293805,441.93795 C27.2676904,446.699248 30.0592865,450.815726 33.6686769,454.287505 C37.2780674,457.759285 41.5923522,460.487072 46.6116608,462.470946 C51.6309693,464.45482 57.2423594,465.446742 63.4459992,465.446742 C68.2961176,465.446742 73.0051736,464.430022 77.5733084,462.396551 C82.1414431,460.36308 86.3993321,457.114534 90.3471029,452.650817 L107.942793,463.661264 C102.528708,470.20805 95.9303897,474.969276 88.1476416,477.945088 C80.3648934,480.920899 72.0746991,482.408783 63.2768099,482.408783 C54.0277469,482.408783 45.540167,481.094486 37.8138155,478.465852 C30.0874641,475.837219 23.4327503,472.11751 17.8494744,467.306615 C12.2661986,462.49572 7.89551791,456.717773 4.73730127,449.972601 C1.57908463,443.227428 0,435.738415 0,427.505337 C0,419.073871 1.57908463,411.411272 4.73730127,404.517309 C7.89551791,397.623346 12.2661986,391.746206 17.8494744,386.885714 C23.4327503,382.025222 30.0874641,378.280716 37.8138155,375.652083 C45.540167,373.023449 54.0277469,371.709152 63.2768099,371.709152 C71.3979384,371.709152 78.9267883,372.973853 85.8635856,375.503293 C92.8003829,378.032732 99.2577111,382.322796 105.235764,388.373613 L88.6552096,399.08648 Z M461.556818,374.387369 L508.253074,374.387369 C512.764812,374.387369 517.220086,374.858532 521.619031,375.800872 C526.017975,376.743213 529.937489,378.280692 533.377689,380.413357 C536.81789,382.546022 539.609486,385.298606 541.752561,388.671192 C543.895637,392.043779 544.967159,396.11066 544.967159,400.871958 C544.967159,406.823581 543.049699,411.733596 539.214721,415.602151 C535.379744,419.470706 530.360511,422.248088 524.156871,423.934381 L524.156871,424.231961 C527.879055,424.628736 531.347401,425.546264 534.562015,426.984572 C537.776628,428.422881 540.511828,430.257937 542.767697,432.489796 C545.023566,434.721655 546.800037,437.300652 548.097161,440.226867 C549.394286,443.153081 550.042839,446.302435 550.042839,449.675021 C550.042839,455.428256 548.745733,460.214281 546.151484,464.033239 C543.557234,467.852197 540.145284,470.927156 535.915529,473.258208 C531.685775,475.589261 526.835729,477.25073 521.365247,478.242667 C515.894764,479.234605 510.33977,479.730566 504.700098,479.730566 L461.556818,479.730566 L461.556818,374.387369 Z M482.874674,463.661264 L482.874674,433.30814 L503.346583,433.30814 C512.031679,433.30814 518.432611,434.399255 522.549572,436.581516 C526.666533,438.763778 528.724983,442.632275 528.724983,448.187123 C528.724983,451.658903 527.879045,454.411487 526.187143,456.444958 C524.495241,458.478429 522.352198,460.040707 519.757948,461.131837 C517.163699,462.222968 514.315707,462.917314 511.213887,463.214895 C508.112067,463.512476 505.207679,463.661264 502.500636,463.661264 L482.874674,463.661264 Z M482.874674,417.238839 L482.874674,390.45667 L500.470364,390.45667 C508.591493,390.45667 514.484862,391.572583 518.15065,393.804441 C521.816437,396.0363 523.649303,399.433634 523.649303,403.996544 C523.649303,407.964293 521.872833,411.163242 518.319839,413.593488 C514.766845,416.023734 509.437435,417.238839 502.331447,417.238839 L482.874674,417.238839 Z M285.258761,374.387369 L317.743112,374.387369 L349.719896,448.187123 L382.035058,374.387369 L414.181031,374.387369 L414.181031,479.730566 L393.878312,479.730566 L393.878312,392.242148 L393.539933,392.242148 L357.164227,479.730566 L342.275566,479.730566 L305.899859,392.242148 L305.561481,392.242148 L305.561481,479.730566 L285.258761,479.730566 L285.258761,374.387369 Z M717.545825,374.387369 L738.863681,374.387369 L738.863681,479.730566 L717.545825,479.730566 L717.545825,374.387369 Z M927.515333,374.387369 L948.833189,374.387369 L948.833189,462.768526 L999.759178,462.768526 L999.759178,479.730566 L927.515333,479.730566 L927.515333,374.387369 Z M132.228365,479.974452 L179.006517,374.358069 L198.435081,374.358069 L246.639183,479.974452 L222.39804,479.974452 L189.701139,400.165462 L158.073701,479.974452 L132.228365,479.974452 Z M775.702542,479.974452 L822.480695,374.358069 L841.909258,374.358069 L890.113361,479.974452 L865.872218,479.974452 L833.175317,400.165462 L801.547879,479.974452 L775.702542,479.974452 Z" id="Combined-Shape" fill="#00006C"></path>
            </g>
        </g>
    </g>
</svg>