<?xml version="1.0" encoding="UTF-8"?>
<svg width="1000px" height="1000px" viewBox="0 0 1000 1000" version="1.1" xmlns="http://www.w3.org/2000/svg" xmlns:xlink="http://www.w3.org/1999/xlink">
    <!-- Generator: Sketch 43.2 (39069) - http://www.bohemiancoding.com/sketch -->
    <title>Mark</title>
    <desc>Created with Sketch.</desc>
    <defs>
        <linearGradient x1="50.0059289%" y1="99.9969901%" x2="50.0059289%" y2="-0.000713544369%" id="linearGradient-1">
            <stop stop-color="#010043" offset="0%"></stop>
            <stop stop-color="#01006F" offset="55.38%"></stop>
            <stop stop-color="#010043" offset="100%"></stop>
        </linearGradient>
    </defs>
    <g id="Assets" stroke="none" stroke-width="1" fill="none" fill-rule="evenodd">
        <g id="Mark">
            <circle id="Oval-3" cx="500" cy="500" r="326"></circle>
            <path d="M500,817.096152 C674.632438,817.096152 816.2,675.36913 816.2,500.539989 C816.2,325.710848 674.632438,183.983826 500,183.983826 C325.367562,183.983826 183.8,325.710848 183.8,500.539989 C183.8,675.36913 325.367562,817.096152 500,817.096152 Z M472.934763,92.5271326 C380.766102,96.9194304 294.010412,118.339012 233.926428,188.239294 C157.489571,277.169063 84.1922386,362.92725 92.6706614,497.759383 C106.767179,721.949105 257.880252,868.469313 498.939818,904.491859 C720.865955,937.656559 871.289586,730.608207 905.214673,497.759383 C923.721338,370.770639 847.968225,237.10218 738.500846,166.968023 C658.27491,115.566731 572.966478,87.7583522 472.934763,92.5271326 Z" id="Fill-20" fill="url(#linearGradient-1)"></path>
        </g>
    </g>
</svg>